<?xml version="1.0" encoding="UTF-8" standalone="no"?>
<!-- Created with Inkscape (http://www.inkscape.org/) -->

<svg
   width="69.584595mm"
   height="44.380947mm"
   viewBox="0 0 69.584595 44.380947"
   version="1.1"
   id="svg1"
   xml:space="preserve"
   xmlns="http://www.w3.org/2000/svg"
   xmlns:svg="http://www.w3.org/2000/svg"><defs
     id="defs1" /><g
     id="layer1"
     transform="translate(-74.816652,-101.33222)"><g
       id="g71"
       transform="translate(-14.35647,-38.727354)"><rect
         style="fill:#faf8f6;fill-opacity:1;stroke:none;stroke-width:0.04874;stroke-linecap:square;stroke-dasharray:none;stroke-opacity:1;paint-order:fill markers stroke"
         id="rect63"
         width="69.584587"
         height="44.380951"
         x="89.173126"
         y="140.05957" /><g
         id="g70"
         transform="translate(10.070463,0.42677612)"><text
           xml:space="preserve"
           style="font-style:normal;font-variant:normal;font-weight:bold;font-stretch:normal;font-size:12.7px;line-height:1;font-family:Arial;-inkscape-font-specification:'Arial, Bold';font-variant-ligatures:normal;font-variant-caps:normal;font-variant-numeric:normal;font-variant-east-asian:normal;text-align:center;text-anchor:middle;fill:#143351;fill-opacity:1;stroke:#0d263e;stroke-width:0.061;stroke-linecap:square;stroke-dasharray:none;stroke-opacity:1;paint-order:fill markers stroke"
           x="113.52289"
           y="179.21016"
           id="text63"><tspan
             id="tspan63"
             style="font-style:normal;font-variant:normal;font-weight:bold;font-stretch:normal;font-size:12.7px;font-family:Arial;-inkscape-font-specification:'Arial, Bold';font-variant-ligatures:normal;font-variant-caps:normal;font-variant-numeric:normal;font-variant-east-asian:normal;fill:#143351;fill-opacity:1;stroke:#0d263e;stroke-width:0.061;stroke-opacity:1"
             x="113.52289"
             y="179.21016">MIPHEI-<tspan
   style="font-style:normal;font-variant:normal;font-weight:bold;font-stretch:normal;font-size:12.7px;font-family:Arial;-inkscape-font-specification:'Arial, Bold';font-variant-ligatures:normal;font-variant-caps:normal;font-variant-numeric:normal;font-variant-east-asian:normal;fill:#143351;fill-opacity:1"
   id="tspan1">vit</tspan></tspan></text><g
           id="g69"><g
             id="g66"><rect
               style="fill:#143351;fill-opacity:1;stroke:#162a3e;stroke-width:1.561;stroke-linecap:square;stroke-dasharray:none;stroke-opacity:1;paint-order:fill markers stroke"
               id="rect20-3"
               width="22.229959"
               height="22.360222"
               x="118.48635"
               y="145.03755"
               ry="1.3768682" /><path
               style="fill:#33c92b;fill-opacity:1;stroke:#11420e;stroke-width:0.061;stroke-linecap:square;stroke-dasharray:none;stroke-opacity:1;paint-order:fill markers stroke"
               d="m 121.82717,147.38182 c -1.17425,0.2573 -1.58484,1.67498 -1.29405,2.71932 0.16151,1.32466 1.19471,2.56952 2.56359,2.70527 1.27399,0.0732 1.98598,-1.3822 1.80998,-2.48943 -0.22837,-1.05828 -0.91504,-2.0374 -1.78224,-2.67587 -0.38417,-0.23823 -0.85462,-0.3008 -1.29728,-0.25929 z"
               id="path22-0" /><path
               style="fill:#0e7608;fill-opacity:1;stroke:#0c6407;stroke-width:0.061;stroke-linecap:square;stroke-dasharray:none;stroke-opacity:1;paint-order:fill markers stroke"
               d="m 122.18647,148.83418 c -0.67598,0.52104 -0.95228,1.67286 -0.28698,2.31209 0.37292,0.43008 1.13346,0.40559 1.42603,-0.10555 0.27385,-0.51682 0.21368,-1.20057 -0.10849,-1.68562 -0.2278,-0.34155 -0.59556,-0.62646 -1.03056,-0.52092 z"
               id="path23-4" /><path
               style="fill:#c9c62b;fill-opacity:1;stroke:#42410e;stroke-width:0.061;stroke-linecap:square;stroke-dasharray:none;stroke-opacity:1;paint-order:fill markers stroke"
               d="m 133.08408,146.91505 c -1.29511,0.0258 -2.4052,1.01619 -2.85171,2.18891 -0.19269,0.56757 -0.32202,1.16746 -0.31899,1.76931 0.008,0.78502 0.48417,1.53384 1.1831,1.88766 0.82012,0.43307 1.8015,0.62611 2.70586,0.35673 0.73336,-0.21007 1.4333,-0.64903 1.84677,-1.30064 0.34414,-0.63589 0.43995,-1.37732 0.4439,-2.08968 -0.18865,-1.09885 -0.88504,-2.13908 -1.90197,-2.62708 -0.34653,-0.15053 -0.7302,-0.21619 -1.10696,-0.18521 z"
               id="path24-2" /><path
               style="fill:#767408;fill-opacity:1;stroke:#646207;stroke-width:0.061;stroke-linecap:square;stroke-dasharray:none;stroke-opacity:1;paint-order:fill markers stroke"
               d="m 133.13325,148.71954 c -0.99212,-0.0334 -1.63278,0.91961 -1.60504,1.7929 0.0842,1.05328 1.42153,1.2464 2.21545,0.88021 0.95085,-0.30673 1.2197,-1.66255 0.45445,-2.30448 -0.23557,-0.24254 -0.60163,-0.35058 -1.06486,-0.36863 z"
               id="path25-8" /><path
               style="fill:#33c92b;fill-opacity:1;stroke:#11420e;stroke-width:0.061;stroke-linecap:square;stroke-dasharray:none;stroke-opacity:1;paint-order:fill markers stroke"
               d="m 138.00694,147.18643 c -0.26939,-0.0496 -0.53923,0.13238 -0.63221,0.38298 -0.13552,0.30612 -0.15733,0.66739 -0.0518,0.98534 0.15102,0.37544 0.65294,0.52153 0.99446,0.31853 0.22643,-0.11446 0.30631,-0.37031 0.37366,-0.59586 0.0941,-0.42446 -0.13125,-0.94472 -0.56775,-1.07325 -0.038,-0.01 -0.0771,-0.0161 -0.11637,-0.0177 z"
               id="path26-76" /><path
               style="fill:#33c92b;fill-opacity:1;stroke:#11420e;stroke-width:0.061;stroke-linecap:square;stroke-dasharray:none;stroke-opacity:1;paint-order:fill markers stroke"
               d="m 136.82753,153.09368 c -0.87041,0.0289 -1.61798,0.70313 -1.89379,1.50442 -0.22616,0.62661 -0.11819,1.41089 0.40112,1.86288 0.61926,0.53735 1.58112,0.55121 2.27269,0.14586 0.36538,-0.21639 0.6465,-0.58013 0.73141,-0.99931 0.19384,-0.53428 0.32953,-1.14565 0.10227,-1.69181 -0.26966,-0.6043 -0.98884,-0.87159 -1.6137,-0.82204 z"
               id="path27-5" /><path
               style="fill:#33c92b;fill-opacity:1;stroke:#11420e;stroke-width:0.061;stroke-linecap:square;stroke-dasharray:none;stroke-opacity:1;paint-order:fill markers stroke"
               d="m 137.70257,158.26719 c -0.53392,-0.21566 -1.07157,0.34044 -0.85331,0.87021 0.16503,0.54108 0.5466,1.01696 1.02109,1.31949 0.54789,0.22059 0.87076,-0.48846 0.8498,-0.93798 0.0619,-0.51352 -0.30048,-1.03796 -0.77681,-1.20837 -0.0803,-0.0144 -0.16336,-0.015 -0.24077,-0.0434 z"
               id="path28-2" /><path
               style="fill:#33c92b;fill-opacity:1;stroke:#11420e;stroke-width:0.061;stroke-linecap:square;stroke-dasharray:none;stroke-opacity:1;paint-order:fill markers stroke"
               d="m 131.82288,155.312 c -0.90052,-0.11315 -1.74531,1.03159 -1.19637,1.82028 0.26557,0.61151 1.13489,0.96769 1.67395,0.49321 0.43057,-0.44964 0.79877,-1.23743 0.34248,-1.79439 -0.20049,-0.26266 -0.50373,-0.43625 -0.82006,-0.5191 z"
               id="path29-6" /><path
               style="fill:#c9c62b;fill-opacity:1;stroke:#42410e;stroke-width:0.061;stroke-linecap:square;stroke-dasharray:none;stroke-opacity:1;paint-order:fill markers stroke"
               d="m 127.55875,150.49728 c -0.25604,0.0348 -0.45697,0.21561 -0.64393,0.37817 -0.14312,0.17036 -0.20948,0.39876 -0.22821,0.61719 -0.001,0.27132 0.23184,0.45734 0.32826,0.69498 0.16456,0.22412 0.47074,0.14378 0.70732,0.19036 0.25906,0.0472 0.49741,-0.10568 0.65497,-0.29858 0.24566,-0.27419 0.27624,-0.68577 0.12582,-1.01387 -0.0599,-0.21773 -0.19554,-0.4028 -0.40215,-0.50038 -0.14486,-0.14719 -0.3626,-0.14012 -0.54206,-0.0679 z"
               id="path30-8" /><path
               style="fill:#33c92b;fill-opacity:1;stroke:#11420e;stroke-width:0.061;stroke-linecap:square;stroke-dasharray:none;stroke-opacity:1;paint-order:fill markers stroke"
               d="m 126.12742,146.21614 c -0.21939,0.0717 -0.49648,0.11307 -0.60421,0.3478 -0.10504,0.16729 -0.11174,0.37294 -0.0537,0.55793 0.078,0.21718 0.0619,0.46142 0.17574,0.66533 0.10317,0.18979 0.33941,0.17918 0.52435,0.21038 0.17635,0.009 0.37844,0.0655 0.52838,-0.0598 0.19836,-0.15999 0.29228,-0.4234 0.31362,-0.67007 -0.001,-0.33445 -0.21267,-0.61375 -0.3758,-0.88972 -0.0861,-0.19452 -0.32706,-0.18872 -0.50069,-0.15664 l -0.008,-0.006 z"
               id="path31-31" /><path
               style="fill:#33c92b;fill-opacity:1;stroke:#11420e;stroke-width:0.061;stroke-linecap:square;stroke-dasharray:none;stroke-opacity:1;paint-order:fill markers stroke"
               d="m 121.18418,154.07619 c -0.80863,-0.0847 -1.47497,1.00886 -0.97519,1.66643 0.40175,0.50289 1.39708,0.49043 1.61161,-0.18363 0.1547,-0.51414 -0.0889,-1.32321 -0.63642,-1.4828 z"
               id="path32-6" /><path
               style="fill:#33c92b;fill-opacity:1;stroke:#11420e;stroke-width:0.061;stroke-linecap:square;stroke-dasharray:none;stroke-opacity:1;paint-order:fill markers stroke"
               d="m 124.06335,161.50452 c -0.8153,-0.32601 -1.71505,0.22785 -2.18374,0.88344 -0.20269,0.46818 -0.35456,1.06657 -0.12398,1.55649 0.30023,0.4869 0.64879,0.98337 1.19483,1.22197 0.55127,0.23093 1.08888,0.49968 1.64548,0.71352 0.63923,0.1413 1.30439,0.15296 1.9544,0.10357 0.6089,-0.17587 1.14377,-0.72875 1.29018,-1.3523 0.31941,-0.73601 -0.0871,-1.43401 -0.73149,-1.8056 -0.35705,-0.44453 -0.85638,-0.7257 -1.38683,-0.92644 -0.48605,-0.28207 -1.08154,-0.30246 -1.60217,-0.37839 -0.0183,-0.0187 -0.12974,-0.0178 -0.0567,-0.0163 z"
               id="path33-5" /><path
               style="fill:#c9c62b;fill-opacity:1;stroke:#42410e;stroke-width:0.061;stroke-linecap:square;stroke-dasharray:none;stroke-opacity:1;paint-order:fill markers stroke"
               d="m 121.90315,158.50847 c -0.34088,0.0614 -0.61512,0.31538 -0.74421,0.6308 -0.0963,0.25589 -0.25229,0.57523 -0.0472,0.81991 0.18919,0.16322 0.14608,0.52492 0.43147,0.56978 0.309,0.0472 0.61085,-0.15757 0.71572,-0.44575 0.0609,-0.19433 0.11998,-0.38917 0.20518,-0.57513 0.10735,-0.23558 0.0436,-0.50114 -0.0433,-0.73107 -0.0954,-0.17969 -0.33198,-0.23993 -0.51762,-0.26854 z"
               id="path34-9" /><path
               style="fill:#33c92b;fill-opacity:1;stroke:#11420e;stroke-width:0.061;stroke-linecap:square;stroke-dasharray:none;stroke-opacity:1;paint-order:fill markers stroke"
               d="m 126.35381,153.65616 c -2.21604,0.1513 -3.56837,3.01058 -2.55387,4.89611 0.83976,1.33494 2.941,1.28753 3.76972,-0.0301 1.03655,-1.23631 1.31508,-3.47053 -0.15402,-4.4931 -0.31543,-0.20992 -0.68322,-0.34403 -1.06183,-0.37289 z"
               id="path35-71" /><path
               style="fill:#0e7608;fill-opacity:1;stroke:#0c6407;stroke-width:0.061;stroke-linecap:square;stroke-dasharray:none;stroke-opacity:1;paint-order:fill markers stroke"
               d="m 127.07026,155.21386 c -0.24015,0.0326 -0.52945,0.16395 -0.61299,0.40367 -0.05,0.21728 -0.121,0.48621 0.065,0.66205 0.18345,0.20223 0.52504,0.27638 0.73402,0.0692 0.22953,-0.12804 0.32782,-0.3813 0.26437,-0.63436 0.0174,-0.23173 -0.13875,-0.48852 -0.38822,-0.4983 -0.0203,0.005 -0.0424,-10e-4 -0.0621,-0.002 z"
               id="path36-7" /><path
               style="fill:#0e7608;fill-opacity:1;stroke:#0c6407;stroke-width:0.061;stroke-linecap:square;stroke-dasharray:none;stroke-opacity:1;paint-order:fill markers stroke"
               d="m 125.03064,155.95748 c -0.23453,0.0224 -0.51603,0.17032 -0.50206,0.44172 -0.0563,0.29571 0.24973,0.55743 0.52669,0.40984 0.22212,-0.0969 0.44425,-0.40643 0.27395,-0.63628 -0.0731,-0.10457 -0.19118,-0.15509 -0.29858,-0.21528 z"
               id="path37-0" /><path
               style="fill:#0e7608;fill-opacity:1;stroke:#0c6407;stroke-width:0.061;stroke-linecap:square;stroke-dasharray:none;stroke-opacity:1;paint-order:fill markers stroke"
               d="m 126.23441,157.44465 c -0.19199,-0.0135 -0.38598,0.0127 -0.5692,0.0708 -0.096,0.0845 -0.11836,0.2394 -0.0513,0.34806 0.037,0.1204 0.13703,0.2107 0.19976,0.31627 0.0899,0.0588 0.20465,0.0431 0.30665,0.0583 0.14496,0.007 0.27373,-0.0762 0.37938,-0.16624 0.084,-0.0823 0.0892,-0.2103 0.0876,-0.3209 -0.003,-0.1149 -0.0761,-0.21956 -0.18226,-0.2634 -0.0528,-0.0213 -0.11229,-0.0599 -0.17065,-0.0429 z"
               id="path38-5" /><path
               style="fill:#c9c62b;fill-opacity:1;stroke:#42410e;stroke-width:0.061;stroke-linecap:square;stroke-dasharray:none;stroke-opacity:1;paint-order:fill markers stroke"
               d="m 128.79385,159.54149 c -0.10328,0.17067 -0.23456,0.33951 -0.25011,0.54579 -0.0873,0.21467 0.023,0.43881 0.11135,0.63342 0.1016,0.24674 0.32776,0.46498 0.60483,0.4801 0.20445,0.0749 0.42795,-0.0275 0.57058,-0.17615 0.11425,-0.0815 0.27675,-0.1356 0.31356,-0.28757 0.10165,-0.26492 -0.0123,-0.55355 0.0653,-0.8228 0.0346,-0.26855 -0.1568,-0.51616 -0.38646,-0.6331 -0.0843,-0.042 -0.16689,-0.0908 -0.25232,-0.12866 -0.3848,-0.0626 -0.56776,0.0724 -0.77669,0.38897 z"
               id="path39-5" /><path
               style="fill:#c9c72b;fill-opacity:1;stroke:#42410e;stroke-width:0.061;stroke-linecap:square;stroke-dasharray:none;stroke-opacity:1;paint-order:fill markers stroke"
               d="m 134.3252,159.15759 c -1.72758,-0.3664 -3.2112,1.5252 -2.76541,3.14887 0.34616,1.8591 2.52868,3.36014 4.34408,2.55257 1.27274,-0.73383 1.4797,-2.60492 0.65208,-3.76088 -0.49608,-0.9331 -1.19261,-1.64173 -2.23075,-1.94056 z"
               id="path40-2" /><path
               style="fill:#767408;fill-opacity:1;stroke:#646207;stroke-width:0.061;stroke-linecap:square;stroke-dasharray:none;stroke-opacity:1;paint-order:fill markers stroke"
               d="m 133.29918,160.74676 c -0.15731,0.20097 -0.40118,0.34808 -0.47374,0.60505 -0.0239,0.12576 0.007,0.25609 -0.0295,0.38132 -0.0393,0.16761 -0.0327,0.34325 0.007,0.5097 0.0633,0.19894 0.18724,0.37069 0.28477,0.55327 0.12991,0.20449 0.36599,0.32513 0.60642,0.32668 0.27697,0.0363 0.54068,0.16805 0.82521,0.13685 0.24931,0.007 0.52218,0.004 0.72656,-0.16047 0.16938,-0.11268 0.2737,-0.31032 0.2876,-0.51158 0.11544,-0.2265 0.14535,-0.49187 0.0993,-0.7407 0.0287,-0.30542 -0.20474,-0.53977 -0.32312,-0.7997 -0.2419,-0.40494 -0.70453,-0.62495 -1.1561,-0.6986 -0.0275,-0.003 -0.52403,0.0293 -0.85411,0.39818 z"
               id="path41-7" /><path
               style="fill:#33c92b;fill-opacity:1;stroke:#11420e;stroke-width:0.061;stroke-linecap:square;stroke-dasharray:none;stroke-opacity:1;paint-order:fill markers stroke"
               d="m 130.42454,164.08807 c -0.32968,-0.0237 -0.52769,0.34186 -0.58282,0.61993 0.0367,0.2748 0.16534,0.59834 0.41319,0.74288 0.25322,0.0585 0.65186,0.15726 0.78135,-0.15115 0.0645,-0.27052 0.2053,-0.57932 0.0541,-0.84659 -0.15799,-0.17662 -0.37355,-0.3778 -0.62687,-0.37287 z"
               id="path42-8" /><path
               style="fill:#0e7608;fill-opacity:1;stroke:#0c6407;stroke-width:0.061;stroke-linecap:square;stroke-dasharray:none;stroke-opacity:1;paint-order:fill markers stroke"
               d="m 126.25611,163.99038 c -0.133,0.0181 -0.25022,0.0881 -0.3727,0.13771 -0.0825,0.0457 -0.14849,0.12253 -0.18561,0.20836 -0.0316,0.13142 -0.0381,0.27542 0.0112,0.40299 0.0528,0.0877 0.14052,0.14841 0.19002,0.23849 0.12292,0.0763 0.2736,0.057 0.41122,0.0704 0.10727,0.002 0.20636,-0.0525 0.2843,-0.12229 0.10297,-0.0667 0.17421,-0.18075 0.18047,-0.30424 0.0136,-0.12067 0.019,-0.25396 -0.0456,-0.36183 -0.0443,-0.0664 -0.11625,-0.1104 -0.19215,-0.13167 -0.0782,-0.0729 -0.1841,-0.10022 -0.28115,-0.13794 z"
               id="path43-3" /><path
               style="fill:#0e7608;fill-opacity:1;stroke:#0c6407;stroke-width:0.061;stroke-linecap:square;stroke-dasharray:none;stroke-opacity:1;paint-order:fill markers stroke"
               d="m 123.84625,162.9157 c -0.27621,0.0226 -0.46832,0.25217 -0.43558,0.52208 -0.1379,0.24383 0.0114,0.47142 0.21752,0.60953 0.3164,0.312 0.92604,0.22425 1.11172,-0.1901 0.14776,-0.27643 -0.0676,-0.5537 -0.24627,-0.75217 -0.15187,-0.20087 -0.4319,-0.13914 -0.64739,-0.18934 z"
               id="path44-6" /><path
               style="fill:#33c92b;fill-opacity:1;stroke:#11420e;stroke-width:0.061;stroke-linecap:square;stroke-dasharray:none;stroke-opacity:1;paint-order:fill markers stroke"
               d="m 138.30128,164.16991 c -0.1319,0.003 -0.27597,-0.0215 -0.39433,0.052 -0.18409,0.0511 -0.34257,0.17716 -0.43736,0.34262 -0.11311,0.16927 -0.1524,0.37982 -0.13667,0.5805 0.0103,0.12144 0.0601,0.23683 0.13406,0.33241 0.0549,0.12508 0.15671,0.23845 0.29611,0.26475 0.11662,0.0329 0.23546,0.0594 0.35421,0.0824 0.12484,0.0171 0.25773,-0.015 0.35184,-0.10127 0.14513,-0.0975 0.338,-0.13659 0.43418,-0.29595 0.0901,-0.1266 0.11951,-0.28787 0.0984,-0.43991 0.008,-0.15714 0.0192,-0.34578 -0.1114,-0.45958 -0.14903,-0.11484 -0.2653,-0.28359 -0.45165,-0.34137 -0.0448,-0.0118 -0.0912,-0.0165 -0.1374,-0.0166 z"
               id="path45-2" /></g><g
             id="g67"><rect
               style="fill:#f3c7d7;fill-opacity:1;stroke:#c84586;stroke-width:1.561;stroke-linecap:square;stroke-dasharray:none;stroke-opacity:1;paint-order:fill markers stroke"
               id="rect20"
               width="22.229959"
               height="22.360222"
               x="87.31131"
               y="145.03755"
               ry="1.3768682" /><path
               style="fill:#ce4384;fill-opacity:1;stroke:#b1326d;stroke-width:0.061;stroke-linecap:square;stroke-dasharray:none;stroke-opacity:1;paint-order:fill markers stroke"
               d="m 90.652123,147.38182 c -1.174249,0.2573 -1.584833,1.67498 -1.294052,2.71932 0.161515,1.32466 1.194712,2.56952 2.563599,2.70527 1.273986,0.0732 1.985978,-1.3822 1.809978,-2.48943 -0.228368,-1.05828 -0.915045,-2.0374 -1.782247,-2.67587 -0.384163,-0.23823 -0.854612,-0.3008 -1.297278,-0.25929 z"
               id="path22" /><path
               style="fill:#8b216f;fill-opacity:1;stroke:#6f1d5a;stroke-width:0.061;stroke-linecap:square;stroke-dasharray:none;stroke-opacity:1;paint-order:fill markers stroke"
               d="m 91.011422,148.83418 c -0.675976,0.52104 -0.952273,1.67286 -0.286978,2.31209 0.372924,0.43008 1.133458,0.40559 1.426032,-0.10555 0.273853,-0.51682 0.213683,-1.20057 -0.108491,-1.68562 -0.227801,-0.34155 -0.595558,-0.62646 -1.030563,-0.52092 z"
               id="path23" /><path
               style="fill:#ce4384;fill-opacity:1;stroke:#b1326d;stroke-width:0.061;stroke-linecap:square;stroke-dasharray:none;stroke-opacity:1;paint-order:fill markers stroke"
               d="m 101.90903,146.91505 c -1.29511,0.0258 -2.405198,1.01619 -2.851709,2.18891 -0.192682,0.56757 -0.322018,1.16746 -0.318986,1.76931 0.0077,0.78502 0.484174,1.53384 1.183104,1.88766 0.820111,0.43307 1.801501,0.62611 2.705851,0.35673 0.73337,-0.21007 1.4333,-0.64903 1.84678,-1.30064 0.34414,-0.63589 0.43995,-1.37732 0.4439,-2.08968 -0.18865,-1.09885 -0.88504,-2.13908 -1.90198,-2.62708 -0.34652,-0.15053 -0.73019,-0.21619 -1.10696,-0.18521 z"
               id="path24" /><path
               style="fill:#8b216f;fill-opacity:1;stroke:#6f1d5a;stroke-width:0.061;stroke-linecap:square;stroke-dasharray:none;stroke-opacity:1;paint-order:fill markers stroke"
               d="m 101.95821,148.71954 c -0.99212,-0.0334 -1.63279,0.91961 -1.60505,1.7929 0.0842,1.05328 1.42154,1.2464 2.21546,0.88021 0.95085,-0.30673 1.2197,-1.66255 0.45445,-2.30448 -0.23557,-0.24254 -0.60164,-0.35058 -1.06486,-0.36863 z"
               id="path25" /><path
               style="fill:#9559a8;fill-opacity:1;stroke:#865595;stroke-width:0.061;stroke-linecap:square;stroke-dasharray:none;stroke-opacity:1;paint-order:fill markers stroke"
               d="m 106.8319,147.18643 c -0.26939,-0.0496 -0.53923,0.13238 -0.63221,0.38298 -0.13552,0.30612 -0.15733,0.66739 -0.0518,0.98534 0.15102,0.37544 0.65294,0.52153 0.99446,0.31853 0.22643,-0.11446 0.30631,-0.37031 0.37366,-0.59586 0.0941,-0.42446 -0.13125,-0.94472 -0.56775,-1.07325 -0.038,-0.01 -0.0771,-0.0161 -0.11637,-0.0177 z"
               id="path26" /><path
               style="fill:#9559a8;fill-opacity:1;stroke:#865595;stroke-width:0.061;stroke-linecap:square;stroke-dasharray:none;stroke-opacity:1;paint-order:fill markers stroke"
               d="m 105.65249,153.09368 c -0.87041,0.0289 -1.61798,0.70313 -1.8938,1.50442 -0.22615,0.62661 -0.11818,1.41089 0.40113,1.86288 0.61926,0.53735 1.58112,0.55121 2.27269,0.14586 0.36538,-0.21639 0.6465,-0.58013 0.73141,-0.99931 0.19384,-0.53428 0.32953,-1.14565 0.10227,-1.69181 -0.26966,-0.6043 -0.98884,-0.87159 -1.6137,-0.82204 z"
               id="path27" /><path
               style="fill:#9559a8;fill-opacity:1;stroke:#865595;stroke-width:0.061;stroke-linecap:square;stroke-dasharray:none;stroke-opacity:1;paint-order:fill markers stroke"
               d="m 106.52753,158.26719 c -0.53392,-0.21566 -1.07157,0.34044 -0.85331,0.87021 0.16503,0.54108 0.5466,1.01696 1.02109,1.31949 0.54789,0.22059 0.87076,-0.48846 0.8498,-0.93798 0.0619,-0.51352 -0.30048,-1.03796 -0.77681,-1.20837 -0.0803,-0.0144 -0.16336,-0.015 -0.24077,-0.0434 z"
               id="path28" /><path
               style="fill:#9559a8;fill-opacity:1;stroke:#865595;stroke-width:0.061;stroke-linecap:square;stroke-dasharray:none;stroke-opacity:1;paint-order:fill markers stroke"
               d="m 100.64784,155.312 c -0.900526,-0.11315 -1.745309,1.03159 -1.196369,1.82028 0.26557,0.61151 1.134889,0.96769 1.673939,0.49321 0.43058,-0.44964 0.79878,-1.23743 0.34248,-1.79439 -0.20048,-0.26266 -0.50372,-0.43625 -0.82005,-0.5191 z"
               id="path29" /><path
               style="fill:#9559a8;fill-opacity:1;stroke:#865595;stroke-width:0.061;stroke-linecap:square;stroke-dasharray:none;stroke-opacity:1;paint-order:fill markers stroke"
               d="m 96.383704,150.49728 c -0.256042,0.0348 -0.456968,0.21561 -0.643929,0.37817 -0.143123,0.17036 -0.209476,0.39876 -0.228213,0.61719 -0.001,0.27132 0.231847,0.45734 0.328268,0.69498 0.164553,0.22412 0.470733,0.14378 0.707316,0.19036 0.259055,0.0472 0.497408,-0.10568 0.654967,-0.29858 0.245668,-0.27419 0.27624,-0.68577 0.125823,-1.01387 -0.05985,-0.21773 -0.195544,-0.4028 -0.402147,-0.50038 -0.14486,-0.14719 -0.362604,-0.14012 -0.542067,-0.0679 z"
               id="path30" /><path
               style="fill:#9559a8;fill-opacity:1;stroke:#865595;stroke-width:0.061;stroke-linecap:square;stroke-dasharray:none;stroke-opacity:1;paint-order:fill markers stroke"
               d="m 94.952375,146.21614 c -0.219386,0.0717 -0.496478,0.11307 -0.604204,0.3478 -0.105046,0.16729 -0.111749,0.37294 -0.05371,0.55793 0.07803,0.21718 0.0619,0.46142 0.175736,0.66533 0.103166,0.18979 0.339409,0.17918 0.524346,0.21038 0.176357,0.009 0.378444,0.0655 0.528386,-0.0598 0.198356,-0.15999 0.292279,-0.4234 0.313618,-0.67007 -0.0012,-0.33445 -0.212668,-0.61375 -0.375803,-0.88972 -0.08608,-0.19452 -0.327056,-0.18872 -0.500684,-0.15664 l -0.0077,-0.006 z"
               id="path31" /><path
               style="fill:#9559a8;fill-opacity:1;stroke:#865595;stroke-width:0.061;stroke-linecap:square;stroke-dasharray:none;stroke-opacity:1;paint-order:fill markers stroke"
               d="m 90.00914,154.07619 c -0.808634,-0.0847 -1.474976,1.00886 -0.975194,1.66643 0.401747,0.50289 1.397079,0.49043 1.61161,-0.18363 0.154702,-0.51414 -0.08891,-1.32321 -0.636416,-1.4828 z"
               id="path32" /><path
               style="fill:#ce4384;fill-opacity:1;stroke:#b1326d;stroke-width:0.061;stroke-linecap:square;stroke-dasharray:none;stroke-opacity:1;paint-order:fill markers stroke"
               d="m 92.888307,161.50452 c -0.815299,-0.32601 -1.715047,0.22785 -2.183738,0.88344 -0.202689,0.46818 -0.354561,1.06657 -0.123987,1.55649 0.30023,0.4869 0.648796,0.98337 1.19483,1.22197 0.551278,0.23093 1.088882,0.49968 1.645488,0.71352 0.639226,0.1413 1.304387,0.15296 1.954398,0.10357 0.608899,-0.17587 1.143764,-0.72875 1.290182,-1.3523 0.319402,-0.73601 -0.08707,-1.43401 -0.731492,-1.8056 -0.357055,-0.44453 -0.856381,-0.7257 -1.386835,-0.92644 -0.486046,-0.28207 -1.081533,-0.30246 -1.602171,-0.37839 -0.01826,-0.0187 -0.129732,-0.0178 -0.05667,-0.0163 z"
               id="path33" /><path
               style="fill:#9559a8;fill-opacity:1;stroke:#865595;stroke-width:0.061;stroke-linecap:square;stroke-dasharray:none;stroke-opacity:1;paint-order:fill markers stroke"
               d="m 90.728111,158.50847 c -0.340883,0.0614 -0.615125,0.31538 -0.74422,0.6308 -0.0963,0.25589 -0.252282,0.57523 -0.04721,0.81991 0.189192,0.16322 0.146087,0.52492 0.431475,0.56978 0.309004,0.0472 0.610848,-0.15757 0.71572,-0.44575 0.06087,-0.19433 0.119982,-0.38917 0.205182,-0.57513 0.107352,-0.23558 0.04358,-0.50114 -0.04333,-0.73107 -0.09545,-0.17969 -0.331984,-0.23993 -0.517617,-0.26854 z"
               id="path34" /><path
               style="fill:#ce4384;fill-opacity:1;stroke:#b1326d;stroke-width:0.061;stroke-linecap:square;stroke-dasharray:none;stroke-opacity:1;paint-order:fill markers stroke"
               d="m 95.178768,153.65616 c -2.21604,0.1513 -3.568377,3.01058 -2.553869,4.89611 0.839755,1.33494 2.940998,1.28753 3.76972,-0.0301 1.036549,-1.23631 1.315073,-3.47053 -0.154028,-4.4931 -0.315424,-0.20992 -0.683214,-0.34403 -1.061823,-0.37289 z"
               id="path35" /><path
               style="fill:#8b216f;fill-opacity:1;stroke:#6f1d5a;stroke-width:0.061;stroke-linecap:square;stroke-dasharray:none;stroke-opacity:1;paint-order:fill markers stroke"
               d="m 95.895217,155.21386 c -0.240151,0.0326 -0.52945,0.16395 -0.61299,0.40367 -0.04996,0.21728 -0.121005,0.48621 0.06497,0.66205 0.183448,0.20223 0.525041,0.27638 0.734019,0.0692 0.229528,-0.12804 0.32782,-0.3813 0.264371,-0.63436 0.01744,-0.23173 -0.13875,-0.48852 -0.388217,-0.4983 -0.0203,0.005 -0.04238,-10e-4 -0.06215,-0.002 z"
               id="path36" /><path
               style="fill:#8b216f;fill-opacity:1;stroke:#6f1d5a;stroke-width:0.061;stroke-linecap:square;stroke-dasharray:none;stroke-opacity:1;paint-order:fill markers stroke"
               d="m 93.8556,155.95748 c -0.234533,0.0224 -0.516033,0.17032 -0.502061,0.44172 -0.05634,0.29571 0.24973,0.55743 0.526688,0.40984 0.222119,-0.0969 0.444246,-0.40643 0.273953,-0.63628 -0.07311,-0.10457 -0.191182,-0.15509 -0.29858,-0.21528 z"
               id="path37" /><path
               style="fill:#8b216f;fill-opacity:1;stroke:#6f1d5a;stroke-width:0.061;stroke-linecap:square;stroke-dasharray:none;stroke-opacity:1;paint-order:fill markers stroke"
               d="m 95.059361,157.44465 c -0.191986,-0.0135 -0.385972,0.0127 -0.569191,0.0708 -0.09603,0.0845 -0.118363,0.2394 -0.0513,0.34806 0.03698,0.1204 0.137025,0.2107 0.199756,0.31627 0.08992,0.0588 0.204645,0.0431 0.306653,0.0583 0.144954,0.007 0.273728,-0.0762 0.379373,-0.16624 0.08402,-0.0823 0.08924,-0.2103 0.08761,-0.3209 -0.0031,-0.1149 -0.07607,-0.21956 -0.182256,-0.2634 -0.05281,-0.0213 -0.112289,-0.0599 -0.170646,-0.0429 z"
               id="path38" /><path
               style="fill:#9559a8;fill-opacity:1;stroke:#865595;stroke-width:0.061;stroke-linecap:square;stroke-dasharray:none;stroke-opacity:1;paint-order:fill markers stroke"
               d="m 97.618808,159.54149 c -0.10328,0.17067 -0.234558,0.33951 -0.250113,0.54579 -0.08727,0.21467 0.02303,0.43881 0.111349,0.63342 0.101606,0.24674 0.327764,0.46498 0.604829,0.4801 0.204453,0.0749 0.427949,-0.0275 0.570588,-0.17615 0.114247,-0.0815 0.276749,-0.1356 0.313556,-0.28757 0.101646,-0.26492 -0.01229,-0.55355 0.06526,-0.8228 0.03461,-0.26855 -0.156804,-0.51616 -0.386456,-0.6331 -0.08433,-0.042 -0.166894,-0.0908 -0.252325,-0.12866 -0.384803,-0.0626 -0.567765,0.0724 -0.776688,0.38897 z"
               id="path39" /><path
               style="fill:#ce4384;fill-opacity:1;stroke:#b1326d;stroke-width:0.061;stroke-linecap:square;stroke-dasharray:none;stroke-opacity:1;paint-order:fill markers stroke"
               d="m 103.15016,159.15759 c -1.72759,-0.3664 -3.211207,1.5252 -2.76542,3.14887 0.34617,1.8591 2.52869,3.36014 4.34409,2.55257 1.27274,-0.73383 1.4797,-2.60492 0.65208,-3.76088 -0.49608,-0.9331 -1.19261,-1.64173 -2.23075,-1.94056 z"
               id="path40" /><path
               style="fill:#8b216f;fill-opacity:1;stroke:#6f1d5a;stroke-width:0.061;stroke-linecap:square;stroke-dasharray:none;stroke-opacity:1;paint-order:fill markers stroke"
               d="m 102.12414,160.74676 c -0.15732,0.20097 -0.40119,0.34808 -0.47375,0.60505 -0.0239,0.12576 0.007,0.25609 -0.0295,0.38132 -0.0393,0.16761 -0.0327,0.34325 0.007,0.5097 0.0633,0.19894 0.18725,0.37069 0.28477,0.55327 0.12992,0.20449 0.366,0.32513 0.60642,0.32668 0.27698,0.0363 0.54069,0.16805 0.82521,0.13685 0.24931,0.007 0.52219,0.004 0.72657,-0.16047 0.16938,-0.11268 0.2737,-0.31032 0.2876,-0.51158 0.11544,-0.2265 0.14535,-0.49187 0.0993,-0.7407 0.0287,-0.30542 -0.20474,-0.53977 -0.32312,-0.7997 -0.24191,-0.40494 -0.70453,-0.62495 -1.15611,-0.6986 -0.0276,-0.003 -0.52402,0.0293 -0.8541,0.39818 z"
               id="path41" /><path
               style="fill:#9559a8;fill-opacity:1;stroke:#865595;stroke-width:0.061;stroke-linecap:square;stroke-dasharray:none;stroke-opacity:1;paint-order:fill markers stroke"
               d="m 99.249494,164.08807 c -0.329679,-0.0237 -0.527687,0.34186 -0.582814,0.61993 0.03671,0.2748 0.16534,0.59834 0.413188,0.74288 0.253218,0.0585 0.651863,0.15726 0.78135,-0.15115 0.06448,-0.27052 0.205292,-0.57932 0.05408,-0.84659 -0.15799,-0.17662 -0.373549,-0.3778 -0.626875,-0.37287 z"
               id="path42" /><path
               style="fill:#8b216f;fill-opacity:1;stroke:#6f1d5a;stroke-width:0.061;stroke-linecap:square;stroke-dasharray:none;stroke-opacity:1;paint-order:fill markers stroke"
               d="m 95.081071,163.99038 c -0.133003,0.0181 -0.250226,0.0881 -0.372706,0.13771 -0.08252,0.0457 -0.148493,0.12253 -0.185608,0.20836 -0.03156,0.13142 -0.03813,0.27542 0.01124,0.40299 0.05284,0.0877 0.140515,0.14841 0.190019,0.23849 0.122918,0.0763 0.273597,0.057 0.411224,0.0704 0.107267,0.002 0.206356,-0.0525 0.284293,-0.12229 0.102973,-0.0667 0.174213,-0.18075 0.180473,-0.30424 0.0136,-0.12067 0.01897,-0.25396 -0.04563,-0.36183 -0.04425,-0.0664 -0.116251,-0.1104 -0.192146,-0.13167 -0.07822,-0.0729 -0.184105,-0.10022 -0.281156,-0.13794 z"
               id="path43" /><path
               style="fill:#8b216f;fill-opacity:1;stroke:#6f1d5a;stroke-width:0.061;stroke-linecap:square;stroke-dasharray:none;stroke-opacity:1;paint-order:fill markers stroke"
               d="m 92.671203,162.9157 c -0.276205,0.0226 -0.468317,0.25217 -0.435579,0.52208 -0.137899,0.24383 0.01139,0.47142 0.217518,0.60953 0.316403,0.312 0.926041,0.22425 1.111721,-0.1901 0.14776,-0.27643 -0.06761,-0.5537 -0.246268,-0.75217 -0.151872,-0.20087 -0.431901,-0.13914 -0.647392,-0.18934 z"
               id="path44" /><path
               style="fill:#9559a8;fill-opacity:1;stroke:#865595;stroke-width:0.061;stroke-linecap:square;stroke-dasharray:none;stroke-opacity:1;paint-order:fill markers stroke"
               d="m 107.12624,164.16991 c -0.1319,0.003 -0.27597,-0.0215 -0.39433,0.052 -0.18409,0.0511 -0.34257,0.17716 -0.43736,0.34262 -0.11311,0.16927 -0.1524,0.37982 -0.13667,0.5805 0.0103,0.12144 0.0601,0.23683 0.13406,0.33241 0.0549,0.12508 0.15671,0.23845 0.29611,0.26475 0.11662,0.0329 0.23546,0.0594 0.35421,0.0824 0.12484,0.0171 0.25773,-0.015 0.35184,-0.10127 0.14513,-0.0975 0.338,-0.13659 0.43418,-0.29595 0.0901,-0.1266 0.11951,-0.28787 0.0984,-0.43991 0.008,-0.15714 0.0192,-0.34578 -0.1114,-0.45958 -0.14903,-0.11484 -0.2653,-0.28359 -0.45165,-0.34137 -0.0448,-0.0118 -0.0912,-0.0165 -0.1374,-0.0166 z"
               id="path45" /></g><path
             style="fill:#faf8f6;fill-opacity:1;stroke:none;stroke-width:0.062;stroke-linecap:square;stroke-dasharray:none;stroke-opacity:1;paint-order:fill markers stroke"
             d="m 112.39577,154.6231 c 0.72016,0 1.44031,0 2.16047,0 0.006,-0.56418 -0.009,-1.12848 0.0109,-1.69258 0.23002,-0.43449 1.03056,-0.36482 1.29209,0.0121 1.31433,1.03509 2.64329,2.06303 3.93943,3.10849 0.27741,0.26755 -0.1272,0.53281 -0.3851,0.70715 -1.29313,0.99903 -2.58976,1.9962 -3.88435,2.99445 -0.40038,0.15351 -0.87626,-0.0774 -0.96536,-0.36773 -2.2e-4,-0.55594 -0.0136,-1.11287 -0.0187,-1.66929 -0.73248,0 -1.46497,0 -2.19746,0 0,-1.03173 0,-2.06347 0,-3.0952 l 0.0252,0.001 h 2e-5 z"
             id="path65-5" /><path
             style="fill:#deaf55;fill-opacity:1;stroke:#a77920;stroke-width:0.062;stroke-linecap:square;stroke-dasharray:none;stroke-opacity:1;paint-order:fill markers stroke"
             d="m 110.37728,154.6231 h 2.16046 c 0.006,-0.56418 -0.009,-1.12848 0.0109,-1.69258 0.0521,-0.44041 0.89586,-0.35056 1.30657,0.006 1.31433,1.03509 2.62881,2.06969 3.92496,3.11515 0.27741,0.26755 -0.12721,0.53281 -0.38511,0.70714 -1.29312,0.99904 -2.58976,1.99621 -3.88435,2.99446 -0.40038,0.15351 -0.87626,-0.0774 -0.96536,-0.36773 -2.2e-4,-0.55594 -0.0136,-1.11288 -0.0187,-1.6693 h -2.19747 v -3.0952 l 0.0252,0.001 h 2e-5 z"
             id="path65" /><g
             id="g68"><rect
               style="fill:#deaf55;fill-opacity:1;stroke:#a77920;stroke-width:0.062;stroke-linecap:square;stroke-dasharray:none;stroke-opacity:1;paint-order:fill markers stroke"
               id="rect61-54-1"
               width="3.2167525"
               height="3.2167525"
               x="112.40531"
               y="148.58012"
               ry="0.23055099" /><rect
               style="fill:#deaf55;fill-opacity:1;stroke:#a77920;stroke-width:0.0622476;stroke-linecap:square;stroke-dasharray:none;stroke-opacity:1;paint-order:fill markers stroke"
               id="rect61-54-0"
               width="3.2167525"
               height="3.2167525"
               x="112.40543"
               y="160.64166"
               ry="0.23055099" /><rect
               style="fill:#deaf55;fill-opacity:1;stroke:#a77920;stroke-width:0.0622476;stroke-linecap:square;stroke-dasharray:none;stroke-opacity:1;paint-order:fill markers stroke"
               id="rect61-54-2"
               width="3.2167525"
               height="3.2167525"
               x="112.40543"
               y="144.28818"
               ry="0.23055099" /><rect
               style="fill:#deaf55;fill-opacity:1;stroke:#a77920;stroke-width:0.0622476;stroke-linecap:square;stroke-dasharray:none;stroke-opacity:1;paint-order:fill markers stroke"
               id="rect61-54-8"
               width="3.2167525"
               height="3.2167525"
               x="112.40543"
               y="164.93039"
               ry="0.23055099" /></g></g></g></g></g></svg>
